HIERARCHY
ROOT reference
{
  OFFSET 0 0 0
  CHANNELS 6 Xposition Yposition Zposition Zrotation Xrotation Yrotation
  JOINT Hips
  {
    OFFSET 340.57 87.5694 214.797
    CHANNELS 3 Zrotation Xrotation Yrotation
    JOINT RightUpLeg
    {
      OFFSET -9.35418 -1.55218 -0.019184
      CHANNELS 3 Zrotation Xrotation Yrotation
      JOINT RightLeg
      {
        OFFSET -0.0482219 -41.8948 0.0725956
        CHANNELS 3 Zrotation Xrotation Yrotation
        JOINT RightFoot
        {
          OFFSET -1.00159 -42.3965 -1.97064
          CHANNELS 3 Zrotation Xrotation Yrotation
          End Site
          {
            OFFSET 0 -7.69 17.5
          }
        }
      }
    }
    JOINT LeftUpLeg
    {
      OFFSET 9.33628 -1.64535 -0.0795185
      CHANNELS 3 Zrotation Xrotation Yrotation
      JOINT LeftLeg
      {
        OFFSET 0.124871 -41.8725 -0.08325
        CHANNELS 3 Zrotation Xrotation Yrotation
        JOINT LeftFoot
        {
          OFFSET 0.728222 -40.8097 2.1196
          CHANNELS 3 Zrotation Xrotation Yrotation
          End Site
          {
            OFFSET 0 -7.69 17.5
          }
        }
      }
    }
    JOINT Spine
    {
      OFFSET -0.0135102 14.2943 0.0647361
      CHANNELS 3 Zrotation Xrotation Yrotation
      JOINT Spine1
      {
        OFFSET 0.0181502 9.72385 0.0148045
        CHANNELS 3 Zrotation Xrotation Yrotation
        JOINT Spine2
        {
          OFFSET 0.0557859 10.1166 -0.00979693
          CHANNELS 3 Zrotation Xrotation Yrotation
          JOINT Spine3
          {
            OFFSET 0.0359868 9.71757 0.00306838
            CHANNELS 3 Zrotation Xrotation Yrotation
            JOINT Neck
            {
              OFFSET 0.139197 10.3803 0.0501204
              CHANNELS 3 Zrotation Xrotation Yrotation
              JOINT Head
              {
                OFFSET 0.148012 9.47645 -0.000545472
                CHANNELS 3 Zrotation Xrotation Yrotation
                End Site
                {
                  OFFSET 0 15.95 0
                }
              }
            }
            JOINT RightShoulder
            {
              OFFSET -3.16276 6.92807 0.0312834
              CHANNELS 3 Zrotation Xrotation Yrotation
              JOINT RightArm
              {
                OFFSET -12.7681 0.0492996 0.0890957
                CHANNELS 3 Zrotation Xrotation Yrotation
                JOINT RightForeArm
                {
                  OFFSET -26.4761 -0.090776 0.147076
                  CHANNELS 3 Zrotation Xrotation Yrotation
                  JOINT RightHand
                  {
                    OFFSET -25.9655 0.0607057 -0.248467
                    CHANNELS 3 Zrotation Xrotation Yrotation
                    JOINT RightHandThumb1
                    {
                      OFFSET -2.48905 0.190105 3.12053
                      CHANNELS 3 Zrotation Xrotation Yrotation
                      JOINT RightHandThumb2
                      {
                        OFFSET -3.68274 0 0
                        CHANNELS 3 Zrotation Xrotation Yrotation
                        JOINT RightHandThumb3
                        {
                          OFFSET -2.55832 0 0
                          CHANNELS 3 Zrotation Xrotation Yrotation
                          End Site
                          {
                            OFFSET -2.194 0 0
                          }
                        }
                      }
                    }
                    JOINT RightInHandIndex
                    {
                      OFFSET -3.22368 0.508421 1.97842
                      CHANNELS 3 Zrotation Xrotation Yrotation
                      JOINT RightHandIndex1
                      {
                        OFFSET -5.21684 -0.091368 0.999158
                        CHANNELS 3 Zrotation Xrotation Yrotation
                        JOINT RightHandIndex2
                        {
                          OFFSET -3.61937 0 0
                          CHANNELS 3 Zrotation Xrotation Yrotation
                          JOINT RightHandIndex3
                          {
                            OFFSET -2.0521 0 0
                            CHANNELS 3 Zrotation Xrotation Yrotation
                            End Site
                            {
                              OFFSET -1.805 0 0
                            }
                          }
                        }
                      }
                    }
                    JOINT RightInHandMiddle
                    {
                      OFFSET -3.38211 0.517263 0.756737
                      CHANNELS 3 Zrotation Xrotation Yrotation
                      JOINT RightHandMiddle1
                      {
                        OFFSET -5.17411 -0.084 0.313895
                        CHANNELS 3 Zrotation Xrotation Yrotation
                        JOINT RightHandMiddle2
                        {
                          OFFSET -3.94947 0 0
                          CHANNELS 3 Zrotation Xrotation Yrotation
                          JOINT RightHandMiddle3
                          {
                            OFFSET -2.47579 0 0
                            CHANNELS 3 Zrotation Xrotation Yrotation
                            End Site
                            {
                              OFFSET -1.975 0 0
                            }
                          }
                        }
                      }
                    }
                    JOINT RightInHandRing
                    {
                      OFFSET -3.36516 0.537895 -0.128947
                      CHANNELS 3 Zrotation Xrotation Yrotation
                      JOINT RightHandRing1
                      {
                        OFFSET -4.63474 -0.022105 -0.478947
                        CHANNELS 3 Zrotation Xrotation Yrotation
                        JOINT RightHandRing2
                        {
                          OFFSET -3.44238 0 0
                          CHANNELS 3 Zrotation Xrotation Yrotation
                          JOINT RightHandRing3
                          {
                            OFFSET -2.3881 0 0
                            CHANNELS 3 Zrotation Xrotation Yrotation
                            End Site
                            {
                              OFFSET -1.857 0 0
                            }
                          }
                        }
                      }
                    }
                    JOINT RightInHandPinky
                    {
                      OFFSET -3.16105 0.469368 -1.20179
                      CHANNELS 3 Zrotation Xrotation Yrotation
                      JOINT RightHandPinky1
                      {
                        OFFSET -4.14105 -0.022105 -1.09053
                        CHANNELS 3 Zrotation Xrotation Yrotation
                        JOINT RightHandPinky2
                        {
                          OFFSET -2.75653 0 0
                          CHANNELS 3 Zrotation Xrotation Yrotation
                          JOINT RightHandPinky3
                          {
                            OFFSET -1.74189 0 0
                            CHANNELS 3 Zrotation Xrotation Yrotation
                            End Site
                            {
                              OFFSET -1.645 0 0
                            }
                          }
                        }
                      }
                    }
                  }
                }
              }
            }
            JOINT LeftShoulder
            {
              OFFSET 3.20588 6.97332 0.0254387
              CHANNELS 3 Zrotation Xrotation Yrotation
              JOINT LeftArm
              {
                OFFSET 12.8648 0.0341024 0.0247643
                CHANNELS 3 Zrotation Xrotation Yrotation
                JOINT LeftForeArm
                {
                  OFFSET 26.5059 -0.0470976 -0.0807017
                  CHANNELS 3 Zrotation Xrotation Yrotation
                  JOINT LeftHand
                  {
                    OFFSET 26.0013 -0.0100885 -0.0649647
                    CHANNELS 3 Zrotation Xrotation Yrotation
                    JOINT LeftHandThumb1
                    {
                      OFFSET 2.48905 0.190105 3.12053
                      CHANNELS 3 Zrotation Xrotation Yrotation
                      JOINT LeftHandThumb2
                      {
                        OFFSET 3.68274 0 0
                        CHANNELS 3 Zrotation Xrotation Yrotation
                        JOINT LeftHandThumb3
                        {
                          OFFSET 2.55832 0 0
                          CHANNELS 3 Zrotation Xrotation Yrotation
                          End Site
                          {
                            OFFSET 2.194 0 0
                          }
                        }
                      }
                    }
                    JOINT LeftInHandIndex
                    {
                      OFFSET 3.22368 0.508421 1.97842
                      CHANNELS 3 Zrotation Xrotation Yrotation
                      JOINT LeftHandIndex1
                      {
                        OFFSET 5.21684 -0.091368 0.999158
                        CHANNELS 3 Zrotation Xrotation Yrotation
                        JOINT LeftHandIndex2
                        {
                          OFFSET 3.61937 0 0
                          CHANNELS 3 Zrotation Xrotation Yrotation
                          JOINT LeftHandIndex3
                          {
                            OFFSET 2.0521 0 0
                            CHANNELS 3 Zrotation Xrotation Yrotation
                            End Site
                            {
                              OFFSET 1.805 0 0
                            }
                          }
                        }
                      }
                    }
                    JOINT LeftInHandMiddle
                    {
                      OFFSET 3.38211 0.517263 0.756737
                      CHANNELS 3 Zrotation Xrotation Yrotation
                      JOINT LeftHandMiddle1
                      {
                        OFFSET 5.17411 -0.084 0.313895
                        CHANNELS 3 Zrotation Xrotation Yrotation
                        JOINT LeftHandMiddle2
                        {
                          OFFSET 3.94947 0 0
                          CHANNELS 3 Zrotation Xrotation Yrotation
                          JOINT LeftHandMiddle3
                          {
                            OFFSET 2.47579 0 0
                            CHANNELS 3 Zrotation Xrotation Yrotation
                            End Site
                            {
                              OFFSET 1.975 0 0
                            }
                          }
                        }
                      }
                    }
                    JOINT LeftInHandRing
                    {
                      OFFSET 3.36516 0.537895 -0.128947
                      CHANNELS 3 Zrotation Xrotation Yrotation
                      JOINT LeftHandRing1
                      {
                        OFFSET 4.63474 -0.022105 -0.478947
                        CHANNELS 3 Zrotation Xrotation Yrotation
                        JOINT LeftHandRing2
                        {
                          OFFSET 3.44238 0 0
                          CHANNELS 3 Zrotation Xrotation Yrotation
                          JOINT LeftHandRing3
                          {
                            OFFSET 2.3881 0 0
                            CHANNELS 3 Zrotation Xrotation Yrotation
                            End Site
                            {
                              OFFSET 1.857 0 0
                            }
                          }
                        }
                      }
                    }
                    JOINT LeftInHandPinky
                    {
                      OFFSET 3.16105 0.469368 -1.20179
                      CHANNELS 3 Zrotation Xrotation Yrotation
                      JOINT LeftHandPinky1
                      {
                        OFFSET 4.14105 -0.022105 -1.09053
                        CHANNELS 3 Zrotation Xrotation Yrotation
                        JOINT LeftHandPinky2
                        {
                          OFFSET 2.75653 0 0
                          CHANNELS 3 Zrotation Xrotation Yrotation
                          JOINT LeftHandPinky3
                          {
                            OFFSET 1.74189 0 0
                            CHANNELS 3 Zrotation Xrotation Yrotation
                            End Site
                            {
                              OFFSET 1.645 0 0
                            }
                          }
                        }
                      }
                    }
                  }
                }
              }
            }
          }
        }
      }
    }
  }
}
MOTION
Frames: 2
Frame Time: 0.00833333
1.500000000000000000e+02 0.000000000000000000e+00 0.000000000000000000e+00 0.000000000000000000e+00 0.000000000000000000e+00 -0.000000000000000000e+00 1.503382959274226615e-03 -1.425361276675612097e-02 -4.828651583795874266e-03 3.952687865790550925e-02 3.754365746236072027e-03 -2.728425567900150117e-01 -1.313133829666154884e-01 -1.379967088203542212e-02 2.496911036918795512e-01 -3.691861876547807703e-02 -1.181809833179138340e-02 7.957507176081321520e-02 -1.068827945063929342e-02 -3.217983930337650449e-03 4.139617077437806984e-03 -1.388301866113500352e-03 -6.887872253466010295e-04 4.338704064607610579e-03 8.177246164917174528e-03 1.803929301741597543e-03 4.758103739150955358e-03 -6.620066290521775011e-03 -1.670331628285064813e-04 3.350985804271325308e-02 -1.554465685746910311e-03 1.457292085450509955e-03 8.211119892727509334e-03 -2.612498077448142074e-03 1.400054268020758550e-03 1.373542112478419105e-02 -5.112768016669409082e-04 2.866479471047868040e-04 -1.749607016380511993e-03 1.852407924981605992e-03 6.266535099246724715e-03 -4.437762327055926742e-02 -9.548903717158644180e-03 -5.550968628351225093e-03 -3.006261622340660866e-03 -9.013545314139328676e-04 -1.308569689045962700e-02 -5.872765938572473837e-02 1.518087238917423427e-02 5.422314438347557858e-02 2.230534823365579525e-02 -1.574405377990662769e-01 -3.608930174018597503e-01 2.075832389043893444e-01 1.605155784601183799e-01 -2.513137862063110628e-01 -2.349448706455317115e-01 0.000000000000000000e+00 0.000000000000000000e+00 0.000000000000000000e+00 1.802827014646399701e-15 -1.807912850455332197e-15 0.000000000000000000e+00 -1.956174061783228805e-15 5.631184992095598361e-16 0.000000000000000000e+00 -3.417876628394174280e-15 1.484755162760275361e-15 -1.807889696712823148e-16 0.000000000000000000e+00 0.000000000000000000e+00 0.000000000000000000e+00 0.000000000000000000e+00 1.805139814042814338e-15 5.522988821611348243e-15 0.000000000000000000e+00 4.030917941491873242e-15 6.805412591190846088e-15 -3.417876628394174280e-15 1.484755162760275361e-15 -1.807889696712823148e-16 0.000000000000000000e+00 -7.411777137710965695e-16 -2.980966163487863593e-15 0.000000000000000000e+00 4.210825563736061658e-15 3.113929511640973255e-15 0.000000000000000000e+00 8.974209668729746192e-16 -3.258386010565638028e-18 -3.417876628394174280e-15 1.484755162760275361e-15 -1.807889696712823148e-16 0.000000000000000000e+00 0.000000000000000000e+00 0.000000000000000000e+00 0.000000000000000000e+00 4.549130083350087764e-15 2.997331294824846746e-15 0.000000000000000000e+00 1.477785622843795342e-15 1.133665742517299835e-15 -3.417876628394174280e-15 1.484755162760275361e-15 -1.807889696712823148e-16 0.000000000000000000e+00 0.000000000000000000e+00 0.000000000000000000e+00 0.000000000000000000e+00 5.202493707875395022e-16 2.233499811097686677e-15 0.000000000000000000e+00 1.331815052354737100e-15 8.152285534540084430e-16 -1.775572698791905851e-02 -2.874909918839338094e-03 -4.011101421226320740e-02 1.819399514254848790e-02 1.946785144831882086e-03 -1.464693449875956871e-02 6.881809452492526104e-03 -1.495719177797528998e-02 2.408398993545958836e-02 -1.079713940736355682e-02 2.586707906987228273e-02 -1.072103265444266165e-02 0.000000000000000000e+00 0.000000000000000000e+00 0.000000000000000000e+00 2.087728463300508817e-15 -6.060393799762262527e-15 0.000000000000000000e+00 -2.402354008002007164e-15 -2.769756826719016310e-15 0.000000000000000000e+00 -3.651180228185897851e-15 3.664216393454304432e-15 -2.565572115289831450e-15 0.000000000000000000e+00 0.000000000000000000e+00 0.000000000000000000e+00 0.000000000000000000e+00 -4.261449949942078344e-16 1.120737114385331289e-15 0.000000000000000000e+00 -2.061616381665788291e-15 -3.429566490833087676e-15 -3.651180228185897851e-15 3.664216393454304432e-15 -2.565572115289831450e-15 0.000000000000000000e+00 7.181053462684172173e-15 -5.304309342001761095e-15 0.000000000000000000e+00 5.096611377464912994e-15 -7.287408236690731010e-15 0.000000000000000000e+00 -1.317523300385341154e-15 -3.326282716188974301e-15 -3.651180228185897851e-15 3.664216393454304432e-15 -2.565572115289831450e-15 0.000000000000000000e+00 0.000000000000000000e+00 0.000000000000000000e+00 0.000000000000000000e+00 1.109027087448436826e-15 -7.745264562428816666e-15 0.000000000000000000e+00 -1.404028820033349760e-15 -3.451644090425706044e-18 -3.651180228185897851e-15 3.664216393454304432e-15 -2.565572115289831450e-15 0.000000000000000000e+00 0.000000000000000000e+00 0.000000000000000000e+00 0.000000000000000000e+00 -3.359401319781139000e-16 -4.106144312902952234e-15 0.000000000000000000e+00 2.598925926287021196e-15 -1.162022629028892323e-15
1.500000000000000000e+02 0.000000000000000000e+00 0.000000000000000000e+00 0.000000000000000000e+00 0.000000000000000000e+00 -0.000000000000000000e+00 -2.625404450635562738e-03 -8.633798837052246780e-03 -4.200903296423998817e-03 -4.080223552094645184e-02 -4.107615657966218192e-03 2.345082564904140410e-01 1.623449976823774232e-01 3.264868720500119226e-02 -3.374683830949784524e-01 -2.182641696843058698e-02 -5.356771351155403989e-03 4.964849021545660740e-02 -1.303944587236532254e-02 3.158845668087484175e-03 5.875296958680207605e-03 5.184951711526132427e-03 2.873653525281900760e-03 -5.054407320803522979e-03 -1.580224575597756389e-03 -2.527512585267763928e-03 -8.710851000614984333e-04 -3.534137290486912865e-03 -3.077202490587781572e-03 -2.683870486489675286e-02 -9.411178641680758520e-04 -1.941148378865751234e-03 -6.541301684386638740e-03 -1.513773656296283753e-03 -3.145582309124897620e-03 -1.070164534163449421e-02 2.585564733363659887e-04 -3.833537137265026636e-04 1.847803005845810023e-03 -3.591967921512975899e-03 -1.032567994836902300e-02 6.129055062213507876e-02 5.795789564177975146e-03 1.401149722567143416e-02 -7.369064550902640169e-03 -3.456957081861770486e-03 1.179433518686919674e-02 4.742129903901936422e-02 5.361681580448305826e-03 7.178690122476623185e-03 5.236044889049934828e-03 2.769593497875736943e-01 5.470730754970577481e-01 -3.329605650705373399e-01 -3.031452849299674512e-01 4.464762978546625294e-01 3.630043863294271644e-01 0.000000000000000000e+00 0.000000000000000000e+00 0.000000000000000000e+00 -1.987565981856244146e-15 2.355197922743948204e-16 0.000000000000000000e+00 1.545983393705355115e-15 9.880102649355086556e-16 0.000000000000000000e+00 2.119595365630365748e-15 -1.200938224482982012e-15 -1.193864683333514557e-15 0.000000000000000000e+00 0.000000000000000000e+00 0.000000000000000000e+00 0.000000000000000000e+00 -3.605707629425369661e-15 -6.605425509065651599e-15 0.000000000000000000e+00 -3.445116335570865632e-15 -6.721024501621920583e-15 2.119595365630365748e-15 -1.200938224482982012e-15 -1.193864683333514557e-15 0.000000000000000000e+00 5.574024840966502242e-16 5.839197289325288843e-16 0.000000000000000000e+00 -2.601417804381937319e-15 -4.531341568404997107e-15 0.000000000000000000e+00 -2.104722202220838701e-15 3.303368652132264225e-16 2.119595365630365748e-15 -1.200938224482982012e-15 -1.193864683333514557e-15 0.000000000000000000e+00 0.000000000000000000e+00 0.000000000000000000e+00 0.000000000000000000e+00 -3.781320277904811891e-15 -9.212775777311580335e-16 0.000000000000000000e+00 -1.497424444018947110e-15 -5.869987442720738934e-17 2.119595365630365748e-15 -1.200938224482982012e-15 -1.193864683333514557e-15 0.000000000000000000e+00 0.000000000000000000e+00 0.000000000000000000e+00 0.000000000000000000e+00 2.046312141468270983e-16 -5.139415491324633364e-15 0.000000000000000000e+00 -1.943459596072153778e-15 7.556693308892686328e-16 -1.659949106429204832e-05 -6.158112351939567207e-03 3.749140221052901789e-02 -1.658346571137072831e-02 1.483484845593256198e-02 1.762879701636694760e-02 -1.723166055718016072e-03 1.076124294262660944e-02 -1.939647844551278116e-02 7.424763148859482922e-03 -7.921088789346723141e-03 3.939274652068377146e-03 0.000000000000000000e+00 0.000000000000000000e+00 0.000000000000000000e+00 -1.270046083164158083e-15 6.214588296134902814e-15 0.000000000000000000e+00 3.191230646742503683e-15 3.158426840216725439e-15 0.000000000000000000e+00 2.782633803781358327e-15 -3.853715180278495424e-15 7.078587803970032746e-16 0.000000000000000000e+00 0.000000000000000000e+00 0.000000000000000000e+00 0.000000000000000000e+00 -3.704813364372472421e-16 1.830028801625895670e-15 0.000000000000000000e+00 2.485615367203499917e-15 2.328144006680045422e-15 2.782633803781358327e-15 -3.853715180278495424e-15 7.078587803970032746e-16 0.000000000000000000e+00 -6.374550277910489850e-15 7.029453167940979250e-15 0.000000000000000000e+00 -3.349725240023843095e-15 6.782096965655683884e-15 0.000000000000000000e+00 1.340426349612690434e-15 1.463242956718966516e-15 2.782633803781358327e-15 -3.853715180278495424e-15 7.078587803970032746e-16 0.000000000000000000e+00 0.000000000000000000e+00 0.000000000000000000e+00 0.000000000000000000e+00 6.299272946560404307e-16 6.714226293305283137e-15 0.000000000000000000e+00 -1.686526802464234819e-16 2.663814999880346049e-15 2.782633803781358327e-15 -3.853715180278495424e-15 7.078587803970032746e-16 0.000000000000000000e+00 0.000000000000000000e+00 0.000000000000000000e+00 0.000000000000000000e+00 3.945367678440613266e-16 3.068843513349186031e-15 0.000000000000000000e+00 -1.680513550977220890e-15 2.566089328689190435e-15
